<mxfile host="app.diagrams.net" modified="2022-11-27T19:37:18.359Z" agent="5.0 (Windows NT 10.0; Win64; x64) AppleWebKit/537.36 (KHTML, like Gecko) Chrome/107.0.0.0 Safari/537.36" etag="sp8IumdixWbLTt7-WH8a" version="20.5.3" type="github">
  <diagram id="vQzLv0GSJW7l_bqn6Fss" name="第 1 页">
    <mxGraphModel dx="6166" dy="4550" grid="1" gridSize="10" guides="1" tooltips="1" connect="1" arrows="1" fold="1" page="1" pageScale="1" pageWidth="827" pageHeight="1169" math="0" shadow="0">
      <root>
        <mxCell id="0" />
        <mxCell id="1" parent="0" />
        <mxCell id="jHYHpsZQHIPiM2lGw79Q-7" value="AWS Cloud" style="points=[[0,0],[0.25,0],[0.5,0],[0.75,0],[1,0],[1,0.25],[1,0.5],[1,0.75],[1,1],[0.75,1],[0.5,1],[0.25,1],[0,1],[0,0.75],[0,0.5],[0,0.25]];outlineConnect=0;gradientColor=none;html=1;whiteSpace=wrap;fontSize=12;fontStyle=0;container=1;pointerEvents=0;collapsible=0;recursiveResize=0;shape=mxgraph.aws4.group;grIcon=mxgraph.aws4.group_aws_cloud_alt;strokeColor=#232F3E;fillColor=none;verticalAlign=top;align=left;spacingLeft=30;fontColor=#232F3E;dashed=0;strokeWidth=2;" vertex="1" parent="1">
          <mxGeometry x="-3320" y="-3180" width="1120" height="930" as="geometry" />
        </mxCell>
        <mxCell id="jHYHpsZQHIPiM2lGw79Q-9" value="Region" style="points=[[0,0],[0.25,0],[0.5,0],[0.75,0],[1,0],[1,0.25],[1,0.5],[1,0.75],[1,1],[0.75,1],[0.5,1],[0.25,1],[0,1],[0,0.75],[0,0.5],[0,0.25]];outlineConnect=0;gradientColor=none;html=1;whiteSpace=wrap;fontSize=12;fontStyle=0;container=1;pointerEvents=0;collapsible=0;recursiveResize=0;shape=mxgraph.aws4.group;grIcon=mxgraph.aws4.group_region;strokeColor=#147EBA;fillColor=none;verticalAlign=top;align=left;spacingLeft=30;fontColor=#147EBA;dashed=1;strokeWidth=2;" vertex="1" parent="jHYHpsZQHIPiM2lGw79Q-7">
          <mxGeometry x="40" y="20" width="1050" height="840" as="geometry" />
        </mxCell>
        <mxCell id="jHYHpsZQHIPiM2lGw79Q-23" value="Public subnet 2&lt;br&gt;10.0.1.0/24" style="points=[[0,0],[0.25,0],[0.5,0],[0.75,0],[1,0],[1,0.25],[1,0.5],[1,0.75],[1,1],[0.75,1],[0.5,1],[0.25,1],[0,1],[0,0.75],[0,0.5],[0,0.25]];outlineConnect=0;gradientColor=none;html=1;whiteSpace=wrap;fontSize=12;fontStyle=0;container=1;pointerEvents=0;collapsible=0;recursiveResize=0;shape=mxgraph.aws4.group;grIcon=mxgraph.aws4.group_security_group;grStroke=0;strokeColor=#248814;fillColor=#E9F3E6;verticalAlign=top;align=left;spacingLeft=30;fontColor=#248814;dashed=0;shadow=0;strokeWidth=2;fontFamily=Helvetica;" vertex="1" parent="jHYHpsZQHIPiM2lGw79Q-9">
          <mxGeometry x="650" y="100" width="250" height="270" as="geometry" />
        </mxCell>
        <mxCell id="jHYHpsZQHIPiM2lGw79Q-17" value="Private subnet 2&lt;br&gt;10.0.4.0/23" style="points=[[0,0],[0.25,0],[0.5,0],[0.75,0],[1,0],[1,0.25],[1,0.5],[1,0.75],[1,1],[0.75,1],[0.5,1],[0.25,1],[0,1],[0,0.75],[0,0.5],[0,0.25]];outlineConnect=0;gradientColor=none;html=1;whiteSpace=wrap;fontSize=12;fontStyle=0;container=1;pointerEvents=0;collapsible=0;recursiveResize=0;shape=mxgraph.aws4.group;grIcon=mxgraph.aws4.group_security_group;grStroke=0;strokeColor=#147EBA;fillColor=#E6F2F8;verticalAlign=top;align=left;spacingLeft=30;fontColor=#147EBA;dashed=0;strokeWidth=2;" vertex="1" parent="jHYHpsZQHIPiM2lGw79Q-9">
          <mxGeometry x="660" y="500" width="220" height="180" as="geometry" />
        </mxCell>
        <mxCell id="jHYHpsZQHIPiM2lGw79Q-10" value="&lt;b&gt;&lt;font color=&quot;#1fb839&quot;&gt;VPC 10.0.0.0/16&lt;/font&gt;&lt;/b&gt;" style="points=[[0,0],[0.25,0],[0.5,0],[0.75,0],[1,0],[1,0.25],[1,0.5],[1,0.75],[1,1],[0.75,1],[0.5,1],[0.25,1],[0,1],[0,0.75],[0,0.5],[0,0.25]];outlineConnect=0;gradientColor=none;html=1;whiteSpace=wrap;fontSize=12;fontStyle=0;container=1;pointerEvents=0;collapsible=0;recursiveResize=0;shape=mxgraph.aws4.group;grIcon=mxgraph.aws4.group_vpc;strokeColor=#248814;fillColor=none;verticalAlign=top;align=left;spacingLeft=30;fontColor=#AAB7B8;dashed=0;strokeWidth=2;" vertex="1" parent="jHYHpsZQHIPiM2lGw79Q-9">
          <mxGeometry x="70" y="60" width="950" height="730" as="geometry" />
        </mxCell>
        <mxCell id="jHYHpsZQHIPiM2lGw79Q-18" value="&lt;b&gt;Internet Gateway&lt;/b&gt;" style="sketch=0;outlineConnect=0;fontColor=#232F3E;gradientColor=none;fillColor=#4D27AA;strokeColor=none;dashed=0;verticalLabelPosition=bottom;verticalAlign=top;align=center;html=1;fontSize=12;fontStyle=0;aspect=fixed;pointerEvents=1;shape=mxgraph.aws4.internet_gateway;strokeWidth=2;" vertex="1" parent="jHYHpsZQHIPiM2lGw79Q-10">
          <mxGeometry x="410" y="-30" width="78" height="78" as="geometry" />
        </mxCell>
        <mxCell id="jHYHpsZQHIPiM2lGw79Q-11" value="Availability Zone 1" style="fillColor=none;strokeColor=#147EBA;dashed=1;verticalAlign=top;fontStyle=0;fontColor=#147EBA;strokeWidth=2;" vertex="1" parent="jHYHpsZQHIPiM2lGw79Q-10">
          <mxGeometry x="30" y="-40" width="300" height="790" as="geometry" />
        </mxCell>
        <mxCell id="jHYHpsZQHIPiM2lGw79Q-22" value="Public subnet 1&lt;br&gt;10.0.0.0/24" style="points=[[0,0],[0.25,0],[0.5,0],[0.75,0],[1,0],[1,0.25],[1,0.5],[1,0.75],[1,1],[0.75,1],[0.5,1],[0.25,1],[0,1],[0,0.75],[0,0.5],[0,0.25]];outlineConnect=0;gradientColor=none;html=1;whiteSpace=wrap;fontSize=12;fontStyle=0;container=1;pointerEvents=0;collapsible=0;recursiveResize=0;shape=mxgraph.aws4.group;grIcon=mxgraph.aws4.group_security_group;grStroke=0;strokeColor=#248814;fillColor=#E9F3E6;verticalAlign=top;align=left;spacingLeft=30;fontColor=#248814;dashed=0;strokeWidth=6;" vertex="1" parent="jHYHpsZQHIPiM2lGw79Q-10">
          <mxGeometry x="70" y="40" width="210" height="260" as="geometry" />
        </mxCell>
        <mxCell id="jHYHpsZQHIPiM2lGw79Q-24" value="Bastion Host" style="sketch=0;outlineConnect=0;fontColor=#232F3E;gradientColor=none;fillColor=#D45B07;strokeColor=none;dashed=0;verticalLabelPosition=bottom;verticalAlign=top;align=center;html=1;fontSize=12;fontStyle=0;aspect=fixed;pointerEvents=1;shape=mxgraph.aws4.instance2;shadow=0;strokeWidth=2;fontFamily=Helvetica;" vertex="1" parent="jHYHpsZQHIPiM2lGw79Q-10">
          <mxGeometry x="222" y="90" width="48" height="48" as="geometry" />
        </mxCell>
        <mxCell id="jHYHpsZQHIPiM2lGw79Q-15" value="Private subnet 1&lt;br&gt;10.0.2.0/23" style="points=[[0,0],[0.25,0],[0.5,0],[0.75,0],[1,0],[1,0.25],[1,0.5],[1,0.75],[1,1],[0.75,1],[0.5,1],[0.25,1],[0,1],[0,0.75],[0,0.5],[0,0.25]];outlineConnect=0;gradientColor=none;html=1;whiteSpace=wrap;fontSize=12;fontStyle=0;container=1;pointerEvents=0;collapsible=0;recursiveResize=0;shape=mxgraph.aws4.group;grIcon=mxgraph.aws4.group_security_group;grStroke=0;strokeColor=#147EBA;fillColor=#E6F2F8;verticalAlign=top;align=left;spacingLeft=30;fontColor=#147EBA;dashed=0;strokeWidth=2;" vertex="1" parent="jHYHpsZQHIPiM2lGw79Q-10">
          <mxGeometry x="70" y="440" width="200" height="180" as="geometry" />
        </mxCell>
        <mxCell id="jHYHpsZQHIPiM2lGw79Q-25" value="ALB Security group" style="fillColor=none;strokeColor=#DD3522;verticalAlign=top;fontStyle=0;fontColor=#DD3522;shadow=0;strokeWidth=2;fontFamily=Helvetica;fontSize=12;" vertex="1" parent="jHYHpsZQHIPiM2lGw79Q-10">
          <mxGeometry x="350" y="220" width="200" height="45" as="geometry" />
        </mxCell>
        <mxCell id="jHYHpsZQHIPiM2lGw79Q-30" value="Target group&#xa;EC2 instances with appication &#xa;and data and IAM role&#xa;-CapstoneProject-TG" style="fillColor=none;strokeColor=#5A6C86;dashed=1;verticalAlign=top;fontStyle=1;fontColor=#5A6C86;shadow=0;strokeWidth=2;fontFamily=Helvetica;fontSize=12;" vertex="1" parent="jHYHpsZQHIPiM2lGw79Q-10">
          <mxGeometry x="360" y="285" width="173" height="75" as="geometry" />
        </mxCell>
        <mxCell id="jHYHpsZQHIPiM2lGw79Q-40" value="" style="sketch=0;points=[[0,0,0],[0.25,0,0],[0.5,0,0],[0.75,0,0],[1,0,0],[0,1,0],[0.25,1,0],[0.5,1,0],[0.75,1,0],[1,1,0],[0,0.25,0],[0,0.5,0],[0,0.75,0],[1,0.25,0],[1,0.5,0],[1,0.75,0]];outlineConnect=0;fontColor=#232F3E;gradientColor=#4D72F3;gradientDirection=north;fillColor=#3334B9;strokeColor=#ffffff;dashed=0;verticalLabelPosition=bottom;verticalAlign=top;align=center;html=1;fontSize=12;fontStyle=0;aspect=fixed;shape=mxgraph.aws4.resourceIcon;resIcon=mxgraph.aws4.rds;shadow=0;strokeWidth=2;fontFamily=Helvetica;" vertex="1" parent="jHYHpsZQHIPiM2lGw79Q-10">
          <mxGeometry x="122" y="510" width="78" height="78" as="geometry" />
        </mxCell>
        <mxCell id="jHYHpsZQHIPiM2lGw79Q-45" style="edgeStyle=orthogonalEdgeStyle;rounded=0;orthogonalLoop=1;jettySize=auto;html=1;entryX=0.25;entryY=0;entryDx=0;entryDy=0;fontFamily=Helvetica;fontSize=12;fontColor=#DD3522;" edge="1" parent="jHYHpsZQHIPiM2lGw79Q-10" source="jHYHpsZQHIPiM2lGw79Q-35" target="jHYHpsZQHIPiM2lGw79Q-33">
          <mxGeometry relative="1" as="geometry" />
        </mxCell>
        <mxCell id="jHYHpsZQHIPiM2lGw79Q-35" value="&lt;font style=&quot;font-size: 14px;&quot;&gt;&lt;b&gt;AMI&lt;/b&gt;&lt;/font&gt;" style="outlineConnect=0;dashed=0;verticalLabelPosition=bottom;verticalAlign=top;align=center;html=1;shape=mxgraph.aws3.ami;fillColor=#F58534;gradientColor=none;shadow=0;strokeColor=#DD3522;strokeWidth=2;fontFamily=Helvetica;fontSize=12;fontColor=#DD3522;" vertex="1" parent="jHYHpsZQHIPiM2lGw79Q-10">
          <mxGeometry x="520" y="390" width="40" height="30" as="geometry" />
        </mxCell>
        <mxCell id="jHYHpsZQHIPiM2lGw79Q-42" style="edgeStyle=orthogonalEdgeStyle;rounded=0;orthogonalLoop=1;jettySize=auto;html=1;entryX=0.5;entryY=1;entryDx=0;entryDy=0;entryPerimeter=0;fontFamily=Helvetica;fontSize=12;fontColor=#DD3522;" edge="1" parent="jHYHpsZQHIPiM2lGw79Q-10" source="jHYHpsZQHIPiM2lGw79Q-33" target="jHYHpsZQHIPiM2lGw79Q-38">
          <mxGeometry relative="1" as="geometry" />
        </mxCell>
        <mxCell id="jHYHpsZQHIPiM2lGw79Q-33" value="zhz-ASG" style="points=[[0,0],[0.25,0],[0.5,0],[0.75,0],[1,0],[1,0.25],[1,0.5],[1,0.75],[1,1],[0.75,1],[0.5,1],[0.25,1],[0,1],[0,0.75],[0,0.5],[0,0.25]];outlineConnect=0;gradientColor=none;html=1;whiteSpace=wrap;fontSize=12;fontStyle=0;container=1;pointerEvents=0;collapsible=0;recursiveResize=0;shape=mxgraph.aws4.groupCenter;grIcon=mxgraph.aws4.group_auto_scaling_group;grStroke=1;strokeColor=#D86613;fillColor=none;verticalAlign=top;align=center;fontColor=#D86613;dashed=1;spacingTop=25;shadow=0;strokeWidth=2;fontFamily=Helvetica;" vertex="1" parent="jHYHpsZQHIPiM2lGw79Q-10">
          <mxGeometry x="160" y="470" width="570" height="220" as="geometry" />
        </mxCell>
        <mxCell id="jHYHpsZQHIPiM2lGw79Q-27" value="Database Security Group &#xa;Example-DB" style="fillColor=none;strokeColor=#DD3522;verticalAlign=top;fontStyle=0;fontColor=#DD3522;shadow=0;strokeWidth=2;fontFamily=Helvetica;fontSize=12;" vertex="1" parent="jHYHpsZQHIPiM2lGw79Q-33">
          <mxGeometry x="185" y="160" width="200" height="50" as="geometry" />
        </mxCell>
        <mxCell id="jHYHpsZQHIPiM2lGw79Q-41" value="" style="sketch=0;points=[[0,0,0],[0.25,0,0],[0.5,0,0],[0.75,0,0],[1,0,0],[0,1,0],[0.25,1,0],[0.5,1,0],[0.75,1,0],[1,1,0],[0,0.25,0],[0,0.5,0],[0,0.75,0],[1,0.25,0],[1,0.5,0],[1,0.75,0]];outlineConnect=0;fontColor=#232F3E;gradientColor=#4D72F3;gradientDirection=north;fillColor=#3334B9;strokeColor=#ffffff;dashed=0;verticalLabelPosition=bottom;verticalAlign=top;align=center;html=1;fontSize=12;fontStyle=0;aspect=fixed;shape=mxgraph.aws4.resourceIcon;resIcon=mxgraph.aws4.rds;shadow=0;strokeWidth=2;fontFamily=Helvetica;" vertex="1" parent="jHYHpsZQHIPiM2lGw79Q-33">
          <mxGeometry x="520" y="30" width="78" height="78" as="geometry" />
        </mxCell>
        <mxCell id="jHYHpsZQHIPiM2lGw79Q-26" value="Application Security group&#xa;Inventory-App&#xa;ABLSG" style="fillColor=none;strokeColor=#DD3522;verticalAlign=top;fontStyle=0;fontColor=#DD3522;shadow=0;strokeWidth=2;fontFamily=Helvetica;fontSize=12;" vertex="1" parent="jHYHpsZQHIPiM2lGw79Q-33">
          <mxGeometry x="180" y="60" width="200" height="60" as="geometry" />
        </mxCell>
        <mxCell id="jHYHpsZQHIPiM2lGw79Q-21" value="Bastion Security group" style="fillColor=none;strokeColor=#DD3522;verticalAlign=top;fontStyle=0;fontColor=#DD3522;strokeWidth=2;shadow=0;" vertex="1" parent="jHYHpsZQHIPiM2lGw79Q-10">
          <mxGeometry x="200" y="78" width="500" height="120" as="geometry" />
        </mxCell>
        <mxCell id="jHYHpsZQHIPiM2lGw79Q-47" style="edgeStyle=orthogonalEdgeStyle;rounded=0;orthogonalLoop=1;jettySize=auto;html=1;entryX=1;entryY=0.5;entryDx=0;entryDy=0;entryPerimeter=0;fontFamily=Helvetica;fontSize=14;fontColor=#DD3522;" edge="1" parent="jHYHpsZQHIPiM2lGw79Q-10" source="jHYHpsZQHIPiM2lGw79Q-39" target="jHYHpsZQHIPiM2lGw79Q-41">
          <mxGeometry relative="1" as="geometry" />
        </mxCell>
        <mxCell id="jHYHpsZQHIPiM2lGw79Q-39" value="" style="outlineConnect=0;dashed=0;verticalLabelPosition=bottom;verticalAlign=top;align=center;html=1;shape=mxgraph.aws3.classic_load_balancer;fillColor=#F58534;gradientColor=none;shadow=0;strokeColor=#DD3522;strokeWidth=2;fontFamily=Helvetica;fontSize=12;fontColor=#DD3522;" vertex="1" parent="jHYHpsZQHIPiM2lGw79Q-10">
          <mxGeometry x="741" y="142" width="69" height="72" as="geometry" />
        </mxCell>
        <mxCell id="jHYHpsZQHIPiM2lGw79Q-43" style="edgeStyle=orthogonalEdgeStyle;rounded=0;orthogonalLoop=1;jettySize=auto;html=1;fontFamily=Helvetica;fontSize=12;fontColor=#DD3522;exitX=1;exitY=0.75;exitDx=0;exitDy=0;" edge="1" parent="jHYHpsZQHIPiM2lGw79Q-10" source="jHYHpsZQHIPiM2lGw79Q-33" target="jHYHpsZQHIPiM2lGw79Q-39">
          <mxGeometry relative="1" as="geometry" />
        </mxCell>
        <mxCell id="jHYHpsZQHIPiM2lGw79Q-34" value="AWS Cloud9 instance" style="points=[[0,0],[0.25,0],[0.5,0],[0.75,0],[1,0],[1,0.25],[1,0.5],[1,0.75],[1,1],[0.75,1],[0.5,1],[0.25,1],[0,1],[0,0.75],[0,0.5],[0,0.25]];outlineConnect=0;gradientColor=none;html=1;whiteSpace=wrap;fontSize=12;fontStyle=0;container=1;pointerEvents=0;collapsible=0;recursiveResize=0;shape=mxgraph.aws4.group;grIcon=mxgraph.aws4.group_ec2_instance_contents;strokeColor=#D86613;fillColor=none;verticalAlign=top;align=left;spacingLeft=30;fontColor=#D86613;dashed=0;shadow=0;strokeWidth=2;fontFamily=Helvetica;" vertex="1" parent="jHYHpsZQHIPiM2lGw79Q-10">
          <mxGeometry x="611" y="250" width="130" height="130" as="geometry" />
        </mxCell>
        <mxCell id="jHYHpsZQHIPiM2lGw79Q-36" style="edgeStyle=orthogonalEdgeStyle;rounded=0;orthogonalLoop=1;jettySize=auto;html=1;fontFamily=Helvetica;fontSize=12;fontColor=#DD3522;" edge="1" parent="jHYHpsZQHIPiM2lGw79Q-10" source="jHYHpsZQHIPiM2lGw79Q-34" target="jHYHpsZQHIPiM2lGw79Q-35">
          <mxGeometry relative="1" as="geometry" />
        </mxCell>
        <mxCell id="jHYHpsZQHIPiM2lGw79Q-46" style="edgeStyle=orthogonalEdgeStyle;rounded=0;orthogonalLoop=1;jettySize=auto;html=1;entryX=0;entryY=0.5;entryDx=0;entryDy=0;entryPerimeter=0;fontFamily=Helvetica;fontSize=14;fontColor=#DD3522;" edge="1" parent="jHYHpsZQHIPiM2lGw79Q-10" source="jHYHpsZQHIPiM2lGw79Q-38" target="jHYHpsZQHIPiM2lGw79Q-40">
          <mxGeometry relative="1" as="geometry" />
        </mxCell>
        <mxCell id="jHYHpsZQHIPiM2lGw79Q-38" value="" style="outlineConnect=0;dashed=0;verticalLabelPosition=bottom;verticalAlign=top;align=center;html=1;shape=mxgraph.aws3.classic_load_balancer;fillColor=#F58534;gradientColor=none;shadow=0;strokeColor=#DD3522;strokeWidth=2;fontFamily=Helvetica;fontSize=12;fontColor=#DD3522;" vertex="1" parent="jHYHpsZQHIPiM2lGw79Q-10">
          <mxGeometry x="110" y="160" width="69" height="72" as="geometry" />
        </mxCell>
      </root>
    </mxGraphModel>
  </diagram>
</mxfile>
